# MagicaVoxel @ Ephtracy

# group
o 

# material
mtllib simple_sword.mtl
usemtl palette

# normals
vn -1 0 0
vn 1 0 0
vn 0 0 1
vn 0 0 -1
vn 0 -1 0
vn 0 1 0

# texcoords
vt 0.970703 0.5
vt 0.974609 0.5
vt 0.982422 0.5
vt 0.986328 0.5
vt 0.990234 0.5

# verts
v -4 0.6 0.2
v -4 0.6 -0.2
v -4 0.7 0.1
v -4 0.7 -0.1
v -4 0.8 0.1
v -4 0.8 -0.1
v -4 0.9 0.2
v -4 0.9 -0.2
v -3.9 0.7 0.1
v -3.9 0.7 -0.1
v -3.9 0.8 0.1
v -3.9 0.8 -0.1
v -3.7 0.6 0.1
v -3.7 0.6 -0.1
v -3.7 0.7 0.1
v -3.7 0.7 -0.1
v -3.7 0.8 0.1
v -3.7 0.8 -0.1
v -3.7 0.9 0.1
v -3.7 0.9 -0.1
v -2.3 0.5 0.4
v -2.3 0.5 -0.4
v -2.3 0.6 0.5
v -2.3 0.6 0.4
v -2.3 0.6 0.2
v -2.3 0.6 -0.2
v -2.3 0.6 -0.4
v -2.3 0.6 -0.5
v -2.3 0.9 0.5
v -2.3 0.9 0.4
v -2.3 0.9 0.2
v -2.3 0.9 -0.2
v -2.3 0.9 -0.4
v -2.3 0.9 -0.5
v -2.3 1 0.4
v -2.3 1 -0.4
v -3.9 0.6 0.1
v -3.9 0.6 -0.1
v -3.9 0.7 0.1
v -3.9 0.7 -0.1
v -3.9 0.8 0.1
v -3.9 0.8 -0.1
v -3.9 0.9 0.1
v -3.9 0.9 -0.1
v -2.1 0.5 0.4
v -2.1 0.5 0.1
v -2.1 0.5 -0.1
v -2.1 0.5 -0.4
v -2.1 0.6 0.5
v -2.1 0.6 0.4
v -2.1 0.6 0.3
v -2.1 0.6 0.1
v -2.1 0.6 -0.1
v -2.1 0.6 -0.3
v -2.1 0.6 -0.4
v -2.1 0.6 -0.5
v -2.1 0.7 0.4
v -2.1 0.7 0.3
v -2.1 0.7 -0.3
v -2.1 0.7 -0.4
v -2.1 0.8 0.4
v -2.1 0.8 0.3
v -2.1 0.8 -0.3
v -2.1 0.8 -0.4
v -2.1 0.9 0.5
v -2.1 0.9 0.4
v -2.1 0.9 0.3
v -2.1 0.9 0.1
v -2.1 0.9 -0.1
v -2.1 0.9 -0.3
v -2.1 0.9 -0.4
v -2.1 0.9 -0.5
v -2.1 1 0.4
v -2.1 1 0.1
v -2.1 1 -0.1
v -2.1 1 -0.4
v 2.7 0.6 0.3
v 2.7 0.6 0.2
v 2.7 0.6 -0.2
v 2.7 0.6 -0.3
v 2.7 0.7 0.4
v 2.7 0.7 0.3
v 2.7 0.7 0.2
v 2.7 0.7 -0.2
v 2.7 0.7 -0.3
v 2.7 0.7 -0.4
v 2.7 0.8 0.4
v 2.7 0.8 0.3
v 2.7 0.8 0.2
v 2.7 0.8 -0.2
v 2.7 0.8 -0.3
v 2.7 0.8 -0.4
v 2.7 0.9 0.3
v 2.7 0.9 0.2
v 2.7 0.9 -0.2
v 2.7 0.9 -0.3
v 2.8 0.5 0.1
v 2.8 0.5 -0.1
v 2.8 0.6 0.2
v 2.8 0.6 0.1
v 2.8 0.6 -0.1
v 2.8 0.6 -0.2
v 2.8 0.7 0.3
v 2.8 0.7 0.2
v 2.8 0.7 0.1
v 2.8 0.7 -0.1
v 2.8 0.7 -0.2
v 2.8 0.7 -0.3
v 2.8 0.8 0.3
v 2.8 0.8 0.2
v 2.8 0.8 0.1
v 2.8 0.8 -0.1
v 2.8 0.8 -0.2
v 2.8 0.8 -0.3
v 2.8 0.9 0.2
v 2.8 0.9 0.1
v 2.8 0.9 -0.1
v 2.8 0.9 -0.2
v 2.8 1 0.1
v 2.8 1 -0.1
v 2.9 0.6 0.1
v 2.9 0.6 -0.1
v 2.9 0.7 0.2
v 2.9 0.7 0.1
v 2.9 0.7 -0.1
v 2.9 0.7 -0.2
v 2.9 0.8 0.2
v 2.9 0.8 0.1
v 2.9 0.8 -0.1
v 2.9 0.8 -0.2
v 2.9 0.9 0.1
v 2.9 0.9 -0.1
v 3 0.7 0.1
v 3 0.7 -0.1
v 3 0.8 0.1
v 3 0.8 -0.1
v -2.3 0.6 0.5
v -2.3 0.9 0.5
v -2.1 0.6 0.5
v -2.1 0.9 0.5
v -2.3 0.5 0.4
v -2.3 0.6 0.4
v -2.3 0.9 0.4
v -2.3 1 0.4
v -2.1 0.5 0.4
v -2.1 0.6 0.4
v -2.1 0.7 0.4
v -2.1 0.8 0.4
v -2.1 0.9 0.4
v -2.1 1 0.4
v 2.7 0.7 0.4
v 2.7 0.8 0.4
v -2.1 0.6 0.3
v -2.1 0.7 0.3
v -2.1 0.8 0.3
v -2.1 0.9 0.3
v 2.7 0.6 0.3
v 2.7 0.7 0.3
v 2.7 0.8 0.3
v 2.7 0.9 0.3
v 2.8 0.7 0.3
v 2.8 0.8 0.3
v -4 0.6 0.2
v -4 0.9 0.2
v -2.3 0.6 0.2
v -2.3 0.9 0.2
v 2.7 0.6 0.2
v 2.7 0.7 0.2
v 2.7 0.8 0.2
v 2.7 0.9 0.2
v 2.8 0.6 0.2
v 2.8 0.7 0.2
v 2.8 0.8 0.2
v 2.8 0.9 0.2
v 2.9 0.7 0.2
v 2.9 0.8 0.2
v -2.1 0.5 0.1
v -2.1 0.6 0.1
v -2.1 0.9 0.1
v -2.1 1 0.1
v 2.8 0.5 0.1
v 2.8 0.6 0.1
v 2.8 0.7 0.1
v 2.8 0.8 0.1
v 2.8 0.9 0.1
v 2.8 1 0.1
v 2.9 0.6 0.1
v 2.9 0.7 0.1
v 2.9 0.8 0.1
v 2.9 0.9 0.1
v 3 0.7 0.1
v 3 0.8 0.1
v -4 0.7 -0.1
v -4 0.8 -0.1
v -3.9 0.6 -0.1
v -3.9 0.7 -0.1
v -3.9 0.8 -0.1
v -3.9 0.9 -0.1
v -3.7 0.6 -0.1
v -3.7 0.7 -0.1
v -3.7 0.8 -0.1
v -3.7 0.9 -0.1
v -4 0.7 0.1
v -4 0.8 0.1
v -3.9 0.6 0.1
v -3.9 0.7 0.1
v -3.9 0.8 0.1
v -3.9 0.9 0.1
v -3.7 0.6 0.1
v -3.7 0.7 0.1
v -3.7 0.8 0.1
v -3.7 0.9 0.1
v -2.1 0.5 -0.1
v -2.1 0.6 -0.1
v -2.1 0.9 -0.1
v -2.1 1 -0.1
v 2.8 0.5 -0.1
v 2.8 0.6 -0.1
v 2.8 0.7 -0.1
v 2.8 0.8 -0.1
v 2.8 0.9 -0.1
v 2.8 1 -0.1
v 2.9 0.6 -0.1
v 2.9 0.7 -0.1
v 2.9 0.8 -0.1
v 2.9 0.9 -0.1
v 3 0.7 -0.1
v 3 0.8 -0.1
v -4 0.6 -0.2
v -4 0.9 -0.2
v -2.3 0.6 -0.2
v -2.3 0.9 -0.2
v 2.7 0.6 -0.2
v 2.7 0.7 -0.2
v 2.7 0.8 -0.2
v 2.7 0.9 -0.2
v 2.8 0.6 -0.2
v 2.8 0.7 -0.2
v 2.8 0.8 -0.2
v 2.8 0.9 -0.2
v 2.9 0.7 -0.2
v 2.9 0.8 -0.2
v -2.1 0.6 -0.3
v -2.1 0.7 -0.3
v -2.1 0.8 -0.3
v -2.1 0.9 -0.3
v 2.7 0.6 -0.3
v 2.7 0.7 -0.3
v 2.7 0.8 -0.3
v 2.7 0.9 -0.3
v 2.8 0.7 -0.3
v 2.8 0.8 -0.3
v -2.3 0.5 -0.4
v -2.3 0.6 -0.4
v -2.3 0.9 -0.4
v -2.3 1 -0.4
v -2.1 0.5 -0.4
v -2.1 0.6 -0.4
v -2.1 0.7 -0.4
v -2.1 0.8 -0.4
v -2.1 0.9 -0.4
v -2.1 1 -0.4
v 2.7 0.7 -0.4
v 2.7 0.8 -0.4
v -2.3 0.6 -0.5
v -2.3 0.9 -0.5
v -2.1 0.6 -0.5
v -2.1 0.9 -0.5
v -2.3 0.5 0.4
v -2.1 0.5 0.4
v -2.1 0.5 0.1
v 2.8 0.5 0.1
v -2.1 0.5 -0.1
v 2.8 0.5 -0.1
v -2.3 0.5 -0.4
v -2.1 0.5 -0.4
v -2.3 0.6 0.5
v -2.1 0.6 0.5
v -2.3 0.6 0.4
v -2.1 0.6 0.4
v -2.1 0.6 0.3
v 2.7 0.6 0.3
v -4 0.6 0.2
v -2.3 0.6 0.2
v 2.7 0.6 0.2
v 2.8 0.6 0.2
v -3.9 0.6 0.1
v -3.7 0.6 0.1
v -2.1 0.6 0.1
v 2.8 0.6 0.1
v 2.9 0.6 0.1
v -3.9 0.6 -0.1
v -3.7 0.6 -0.1
v -2.1 0.6 -0.1
v 2.8 0.6 -0.1
v 2.9 0.6 -0.1
v -4 0.6 -0.2
v -2.3 0.6 -0.2
v 2.7 0.6 -0.2
v 2.8 0.6 -0.2
v -2.1 0.6 -0.3
v 2.7 0.6 -0.3
v -2.3 0.6 -0.4
v -2.1 0.6 -0.4
v -2.3 0.6 -0.5
v -2.1 0.6 -0.5
v -2.1 0.7 0.4
v 2.7 0.7 0.4
v -2.1 0.7 0.3
v 2.7 0.7 0.3
v 2.8 0.7 0.3
v 2.7 0.7 0.2
v 2.8 0.7 0.2
v 2.9 0.7 0.2
v -3.9 0.7 0.1
v -3.7 0.7 0.1
v 2.8 0.7 0.1
v 2.9 0.7 0.1
v 3 0.7 0.1
v -3.9 0.7 -0.1
v -3.7 0.7 -0.1
v 2.8 0.7 -0.1
v 2.9 0.7 -0.1
v 3 0.7 -0.1
v 2.7 0.7 -0.2
v 2.8 0.7 -0.2
v 2.9 0.7 -0.2
v -2.1 0.7 -0.3
v 2.7 0.7 -0.3
v 2.8 0.7 -0.3
v -2.1 0.7 -0.4
v 2.7 0.7 -0.4
v -4 0.8 0.1
v -3.9 0.8 0.1
v -4 0.8 -0.1
v -3.9 0.8 -0.1
v -4 0.7 0.1
v -3.9 0.7 0.1
v -4 0.7 -0.1
v -3.9 0.7 -0.1
v -2.1 0.8 0.4
v 2.7 0.8 0.4
v -2.1 0.8 0.3
v 2.7 0.8 0.3
v 2.8 0.8 0.3
v 2.7 0.8 0.2
v 2.8 0.8 0.2
v 2.9 0.8 0.2
v -3.9 0.8 0.1
v -3.7 0.8 0.1
v 2.8 0.8 0.1
v 2.9 0.8 0.1
v 3 0.8 0.1
v -3.9 0.8 -0.1
v -3.7 0.8 -0.1
v 2.8 0.8 -0.1
v 2.9 0.8 -0.1
v 3 0.8 -0.1
v 2.7 0.8 -0.2
v 2.8 0.8 -0.2
v 2.9 0.8 -0.2
v -2.1 0.8 -0.3
v 2.7 0.8 -0.3
v 2.8 0.8 -0.3
v -2.1 0.8 -0.4
v 2.7 0.8 -0.4
v -2.3 0.9 0.5
v -2.1 0.9 0.5
v -2.3 0.9 0.4
v -2.1 0.9 0.4
v -2.1 0.9 0.3
v 2.7 0.9 0.3
v -4 0.9 0.2
v -2.3 0.9 0.2
v 2.7 0.9 0.2
v 2.8 0.9 0.2
v -3.9 0.9 0.1
v -3.7 0.9 0.1
v -2.1 0.9 0.1
v 2.8 0.9 0.1
v 2.9 0.9 0.1
v -3.9 0.9 -0.1
v -3.7 0.9 -0.1
v -2.1 0.9 -0.1
v 2.8 0.9 -0.1
v 2.9 0.9 -0.1
v -4 0.9 -0.2
v -2.3 0.9 -0.2
v 2.7 0.9 -0.2
v 2.8 0.9 -0.2
v -2.1 0.9 -0.3
v 2.7 0.9 -0.3
v -2.3 0.9 -0.4
v -2.1 0.9 -0.4
v -2.3 0.9 -0.5
v -2.1 0.9 -0.5
v -2.3 1 0.4
v -2.1 1 0.4
v -2.1 1 0.1
v 2.8 1 0.1
v -2.1 1 -0.1
v 2.8 1 -0.1
v -2.3 1 -0.4
v -2.1 1 -0.4

# faces
f 3/2/1 2/2/1 1/2/1
f 4/2/1 2/2/1 3/2/1
f 5/2/1 3/2/1 1/2/1
f 6/2/1 2/2/1 4/2/1
f 7/2/1 5/2/1 1/2/1
f 7/2/1 6/2/1 5/2/1
f 8/2/1 2/2/1 6/2/1
f 8/2/1 6/2/1 7/2/1
f 11/5/1 10/5/1 9/5/1
f 12/5/1 10/5/1 11/5/1
f 15/2/1 14/2/1 13/2/1
f 16/2/1 14/2/1 15/2/1
f 19/2/1 18/2/1 17/2/1
f 20/2/1 18/2/1 19/2/1
f 24/5/1 22/5/1 21/5/1
f 25/5/1 22/5/1 24/5/1
f 26/5/1 22/5/1 25/5/1
f 27/5/1 22/5/1 26/5/1
f 29/5/1 24/5/1 23/5/1
f 29/5/1 25/5/1 24/5/1
f 30/5/1 25/5/1 29/5/1
f 31/5/1 25/5/1 30/5/1
f 32/5/1 28/5/1 27/5/1
f 32/5/1 27/5/1 26/5/1
f 33/5/1 28/5/1 32/5/1
f 34/5/1 28/5/1 33/5/1
f 35/5/1 31/5/1 30/5/1
f 35/5/1 33/5/1 32/5/1
f 35/5/1 32/5/1 31/5/1
f 36/5/1 33/5/1 35/5/1
f 37/2/2 38/2/2 39/2/2
f 39/2/2 38/2/2 40/2/2
f 41/2/2 42/2/2 43/2/2
f 43/2/2 42/2/2 44/2/2
f 45/5/2 46/5/2 50/5/2
f 50/5/2 46/5/2 51/5/2
f 51/5/2 46/5/2 52/5/2
f 47/5/2 48/5/2 53/5/2
f 53/5/2 48/5/2 54/5/2
f 54/5/2 48/5/2 55/5/2
f 49/5/2 50/5/2 57/5/2
f 50/5/2 51/5/2 57/5/2
f 57/5/2 51/5/2 58/5/2
f 55/5/2 56/5/2 59/5/2
f 54/5/2 55/5/2 59/5/2
f 59/5/2 56/5/2 60/5/2
f 49/5/2 57/5/2 61/5/2
f 60/5/2 56/5/2 64/5/2
f 61/5/2 62/5/2 65/5/2
f 49/5/2 61/5/2 65/5/2
f 65/5/2 62/5/2 66/5/2
f 66/5/2 62/5/2 67/5/2
f 63/5/2 64/5/2 70/5/2
f 64/5/2 56/5/2 71/5/2
f 70/5/2 64/5/2 71/5/2
f 71/5/2 56/5/2 72/5/2
f 67/5/2 68/5/2 73/5/2
f 66/5/2 67/5/2 73/5/2
f 73/5/2 68/5/2 74/5/2
f 69/5/2 70/5/2 75/5/2
f 70/5/2 71/5/2 75/5/2
f 75/5/2 71/5/2 76/5/2
f 77/3/2 78/3/2 82/3/2
f 82/3/2 78/3/2 83/3/2
f 79/3/2 80/3/2 84/3/2
f 84/3/2 80/3/2 85/3/2
f 81/1/2 82/1/2 87/1/2
f 87/1/2 82/1/2 88/1/2
f 85/1/2 86/1/2 91/1/2
f 91/1/2 86/1/2 92/1/2
f 88/3/2 89/3/2 93/3/2
f 93/3/2 89/3/2 94/3/2
f 90/3/2 91/3/2 95/3/2
f 95/3/2 91/3/2 96/3/2
f 97/4/2 98/4/2 100/4/2
f 100/4/2 98/4/2 101/4/2
f 99/3/2 100/3/2 104/3/2
f 104/3/2 100/3/2 105/3/2
f 101/3/2 102/3/2 106/3/2
f 106/3/2 102/3/2 107/3/2
f 103/1/2 104/1/2 109/1/2
f 109/1/2 104/1/2 110/1/2
f 107/1/2 108/1/2 113/1/2
f 113/1/2 108/1/2 114/1/2
f 110/3/2 111/3/2 115/3/2
f 115/3/2 111/3/2 116/3/2
f 112/3/2 113/3/2 117/3/2
f 117/3/2 113/3/2 118/3/2
f 116/4/2 117/4/2 119/4/2
f 119/4/2 117/4/2 120/4/2
f 121/3/2 122/3/2 124/3/2
f 124/3/2 122/3/2 125/3/2
f 123/1/2 124/1/2 127/1/2
f 127/1/2 124/1/2 128/1/2
f 125/1/2 126/1/2 129/1/2
f 129/1/2 126/1/2 130/1/2
f 128/3/2 129/3/2 131/3/2
f 131/3/2 129/3/2 132/3/2
f 133/1/2 134/1/2 135/1/2
f 135/1/2 134/1/2 136/1/2
f 139/5/3 138/5/3 137/5/3
f 140/5/3 138/5/3 139/5/3
f 145/5/3 142/5/3 141/5/3
f 146/5/3 142/5/3 145/5/3
f 149/5/3 144/5/3 143/5/3
f 150/5/3 144/5/3 149/5/3
f 151/1/3 148/1/3 147/1/3
f 152/1/3 148/1/3 151/1/3
f 157/3/3 154/3/3 153/3/3
f 158/3/3 154/3/3 157/3/3
f 159/3/3 156/3/3 155/3/3
f 160/3/3 156/3/3 159/3/3
f 161/1/3 159/1/3 158/1/3
f 162/1/3 159/1/3 161/1/3
f 165/2/3 164/2/3 163/2/3
f 166/2/3 164/2/3 165/2/3
f 171/3/3 168/3/3 167/3/3
f 172/3/3 168/3/3 171/3/3
f 173/3/3 170/3/3 169/3/3
f 174/3/3 170/3/3 173/3/3
f 175/1/3 173/1/3 172/1/3
f 176/1/3 173/1/3 175/1/3
f 181/4/3 178/4/3 177/4/3
f 182/4/3 178/4/3 181/4/3
f 185/4/3 180/4/3 179/4/3
f 186/4/3 180/4/3 185/4/3
f 187/3/3 183/3/3 182/3/3
f 188/3/3 183/3/3 187/3/3
f 189/3/3 185/3/3 184/3/3
f 190/3/3 185/3/3 189/3/3
f 191/1/3 189/1/3 188/1/3
f 192/1/3 189/1/3 191/1/3
f 196/2/3 194/2/3 193/2/3
f 197/2/3 194/2/3 196/2/3
f 199/2/3 196/2/3 195/2/3
f 200/2/3 196/2/3 199/2/3
f 201/2/3 198/2/3 197/2/3
f 202/2/3 198/2/3 201/2/3
f 203/2/4 204/2/4 206/2/4
f 206/2/4 204/2/4 207/2/4
f 205/2/4 206/2/4 209/2/4
f 209/2/4 206/2/4 210/2/4
f 207/2/4 208/2/4 211/2/4
f 211/2/4 208/2/4 212/2/4
f 213/4/4 214/4/4 217/4/4
f 217/4/4 214/4/4 218/4/4
f 215/4/4 216/4/4 221/4/4
f 221/4/4 216/4/4 222/4/4
f 218/3/4 219/3/4 223/3/4
f 223/3/4 219/3/4 224/3/4
f 220/3/4 221/3/4 225/3/4
f 225/3/4 221/3/4 226/3/4
f 224/1/4 225/1/4 227/1/4
f 227/1/4 225/1/4 228/1/4
f 229/2/4 230/2/4 231/2/4
f 231/2/4 230/2/4 232/2/4
f 233/3/4 234/3/4 237/3/4
f 237/3/4 234/3/4 238/3/4
f 235/3/4 236/3/4 239/3/4
f 239/3/4 236/3/4 240/3/4
f 238/1/4 239/1/4 241/1/4
f 241/1/4 239/1/4 242/1/4
f 243/3/4 244/3/4 247/3/4
f 247/3/4 244/3/4 248/3/4
f 245/3/4 246/3/4 249/3/4
f 249/3/4 246/3/4 250/3/4
f 248/1/4 249/1/4 251/1/4
f 251/1/4 249/1/4 252/1/4
f 253/5/4 254/5/4 257/5/4
f 257/5/4 254/5/4 258/5/4
f 255/5/4 256/5/4 261/5/4
f 261/5/4 256/5/4 262/5/4
f 259/1/4 260/1/4 263/1/4
f 263/1/4 260/1/4 264/1/4
f 265/5/4 266/5/4 267/5/4
f 267/5/4 266/5/4 268/5/4
f 271/5/5 270/5/5 269/5/5
f 273/5/5 271/5/5 269/5/5
f 273/4/5 272/4/5 271/4/5
f 274/4/5 272/4/5 273/4/5
f 275/5/5 273/5/5 269/5/5
f 276/5/5 273/5/5 275/5/5
f 279/5/5 278/5/5 277/5/5
f 280/5/5 278/5/5 279/5/5
f 285/3/5 282/3/5 281/3/5
f 287/2/5 284/2/5 283/2/5
f 288/2/5 284/2/5 287/2/5
f 289/3/5 286/3/5 285/3/5
f 289/3/5 285/3/5 281/3/5
f 290/3/5 286/3/5 289/3/5
f 292/2/5 287/2/5 283/2/5
f 293/2/5 284/2/5 288/2/5
f 295/3/5 291/3/5 290/3/5
f 296/3/5 291/3/5 295/3/5
f 297/2/5 292/2/5 283/2/5
f 297/2/5 293/2/5 292/2/5
f 298/2/5 284/2/5 293/2/5
f 298/2/5 293/2/5 297/2/5
f 299/3/5 295/3/5 294/3/5
f 300/3/5 295/3/5 299/3/5
f 301/3/5 299/3/5 294/3/5
f 302/3/5 299/3/5 301/3/5
f 305/5/5 304/5/5 303/5/5
f 306/5/5 304/5/5 305/5/5
f 309/1/5 308/1/5 307/1/5
f 310/1/5 308/1/5 309/1/5
f 312/1/5 311/1/5 310/1/5
f 313/1/5 311/1/5 312/1/5
f 317/1/5 314/1/5 313/1/5
f 318/1/5 314/1/5 317/1/5
f 320/5/5 316/5/5 315/5/5
f 321/5/5 316/5/5 320/5/5
f 323/1/5 319/1/5 318/1/5
f 324/1/5 319/1/5 323/1/5
f 326/1/5 323/1/5 322/1/5
f 327/1/5 323/1/5 326/1/5
f 329/1/5 326/1/5 325/1/5
f 330/1/5 326/1/5 329/1/5
f 331/1/5 329/1/5 328/1/5
f 332/1/5 329/1/5 331/1/5
f 335/2/5 334/2/5 333/2/5
f 336/2/5 334/2/5 335/2/5
f 337/2/6 338/2/6 339/2/6
f 339/2/6 338/2/6 340/2/6
f 341/1/6 342/1/6 343/1/6
f 343/1/6 342/1/6 344/1/6
f 344/1/6 345/1/6 346/1/6
f 346/1/6 345/1/6 347/1/6
f 347/1/6 348/1/6 351/1/6
f 351/1/6 348/1/6 352/1/6
f 349/5/6 350/5/6 354/5/6
f 354/5/6 350/5/6 355/5/6
f 352/1/6 353/1/6 357/1/6
f 357/1/6 353/1/6 358/1/6
f 356/1/6 357/1/6 360/1/6
f 360/1/6 357/1/6 361/1/6
f 359/1/6 360/1/6 363/1/6
f 363/1/6 360/1/6 364/1/6
f 362/1/6 363/1/6 365/1/6
f 365/1/6 363/1/6 366/1/6
f 367/5/6 368/5/6 369/5/6
f 369/5/6 368/5/6 370/5/6
f 371/3/6 372/3/6 375/3/6
f 373/2/6 374/2/6 377/2/6
f 377/2/6 374/2/6 378/2/6
f 375/3/6 376/3/6 379/3/6
f 371/3/6 375/3/6 379/3/6
f 379/3/6 376/3/6 380/3/6
f 373/2/6 377/2/6 382/2/6
f 378/2/6 374/2/6 383/2/6
f 380/3/6 381/3/6 385/3/6
f 385/3/6 381/3/6 386/3/6
f 373/2/6 382/2/6 387/2/6
f 382/2/6 383/2/6 387/2/6
f 383/2/6 374/2/6 388/2/6
f 387/2/6 383/2/6 388/2/6
f 384/3/6 385/3/6 389/3/6
f 389/3/6 385/3/6 390/3/6
f 384/3/6 389/3/6 391/3/6
f 391/3/6 389/3/6 392/3/6
f 393/5/6 394/5/6 395/5/6
f 395/5/6 394/5/6 396/5/6
f 397/5/6 398/5/6 399/5/6
f 397/5/6 399/5/6 401/5/6
f 399/4/6 400/4/6 401/4/6
f 401/4/6 400/4/6 402/4/6
f 397/5/6 401/5/6 403/5/6
f 403/5/6 401/5/6 404/5/6
